<svg xmlns="http://www.w3.org/2000/svg" width="20.004" height="20.988" viewBox="0 0 20.004 20.988"><defs><style>.a{fill:#fff;}</style></defs><path class="a" d="M682.336,717.754a8.226,8.226,0,0,1-8.778-1.339s.117.082.2.15c1.641-3.744,6.707-5.6,6.707-5.6s.039-.014.052-.014A39.267,39.267,0,0,1,682.336,717.754Zm-2.409-8.294c-.1.041-.221.068-.339.109a13.61,13.61,0,0,0-6.941,5.917h0a9.207,9.207,0,0,1-2.188-5.985,2.118,2.118,0,0,1,.013-.287,30,30,0,0,0,8.765-1.271C679.484,708.449,679.718,708.954,679.927,709.46Zm-1.393-2.9a30.874,30.874,0,0,1-7.892,1.093,8.914,8.914,0,0,1,4.714-6.258A54.49,54.49,0,0,1,678.533,706.563Zm8.908,4.359a9.051,9.051,0,0,1-3.66,6.012,41.577,41.577,0,0,0-1.667-6.408A12.106,12.106,0,0,1,687.441,710.922ZM676.957,700.8a.045.045,0,0,0-.026.014C676.944,700.8,676.944,700.8,676.957,700.8Zm7.684,1.981a9.29,9.29,0,0,1-4.454,3.238,44.03,44.03,0,0,0-3.2-5.22,8.157,8.157,0,0,1,7.658,1.981Zm2.9,6.627a19.074,19.074,0,0,0-5.952-.287c-.065-.15-.117-.314-.182-.465-.182-.437-.378-.874-.573-1.3A11.209,11.209,0,0,0,685.6,703.8,9.255,9.255,0,0,1,687.545,709.405Zm1.459.1A10.013,10.013,0,1,0,679,720,10.26,10.26,0,0,0,689,709.5Z" transform="translate(-669 -699.007)"/></svg>