<svg xmlns="http://www.w3.org/2000/svg" width="23.004" height="19.988" viewBox="0 0 23.004 19.988"><defs><style>.a{fill:#fff;}</style></defs><path class="a" d="M648.691,699.007H634.313A4.062,4.062,0,0,0,630,702.754v12.493A4.062,4.062,0,0,0,634.313,719h14.378A4.062,4.062,0,0,0,653,715.247V702.754A4.062,4.062,0,0,0,648.691,699.007ZM640.454,709a3.207,3.207,0,1,1-3.175-2.759A2.99,2.99,0,0,1,640.454,709Zm8.447,0a3.207,3.207,0,1,1-3.175-2.759A2.991,2.991,0,0,1,648.9,709Z" transform="translate(-630 -699.007)"/></svg>