<svg xmlns="http://www.w3.org/2000/svg" width="23.009" height="19.998" viewBox="0 0 23.009 19.998"><defs><style>.a{fill:#fff;}</style></defs><path class="a" d="M614,701.377a8.966,8.966,0,0,1-2.716.781,4.985,4.985,0,0,0,2.073-2.781,8.92,8.92,0,0,1-2.993,1.219A4.567,4.567,0,0,0,606.923,699a4.888,4.888,0,0,0-4.716,5.047,6.08,6.08,0,0,0,.117,1.156,13.136,13.136,0,0,1-9.723-5.281,5.281,5.281,0,0,0-.642,2.547,5.144,5.144,0,0,0,2.1,4.2,4.518,4.518,0,0,1-2.132-.641v.063a4.975,4.975,0,0,0,3.781,4.953,4.686,4.686,0,0,1-1.241.172,5.555,5.555,0,0,1-.891-.078,4.776,4.776,0,0,0,4.409,3.5,9.2,9.2,0,0,1-6.993,2.094A12.7,12.7,0,0,0,598.236,719c8.672,0,13.417-7.687,13.417-14.358,0-.219,0-.437-.015-.656A10.557,10.557,0,0,0,614,701.377Z" transform="translate(-590.995 -699.002)"/></svg>